ISO-10303-21;
HEADER;
FILE_DESCRIPTION(('FreeCAD Model'),'2;1');
FILE_NAME('Open CASCADE Shape Model','2026-06-16T15:20:54',(''),(''),
  'Open CASCADE STEP processor 7.8','FreeCAD','Unknown');
FILE_SCHEMA(('AUTOMOTIVE_DESIGN { 1 0 10303 214 1 1 1 1 }'));
ENDSEC;
DATA;
#1 = APPLICATION_PROTOCOL_DEFINITION('international standard',
  'automotive_design',2000,#2);
#2 = APPLICATION_CONTEXT(
  'core data for automotive mechanical design processes');
#3 = SHAPE_DEFINITION_REPRESENTATION(#4,#10);
#4 = PRODUCT_DEFINITION_SHAPE('','',#5);
#5 = PRODUCT_DEFINITION('design','',#6,#9);
#6 = PRODUCT_DEFINITION_FORMATION('','',#7);
#7 = PRODUCT('ControllerPortMale','ControllerPortMale','',(#8));
#8 = PRODUCT_CONTEXT('',#2,'mechanical');
#9 = PRODUCT_DEFINITION_CONTEXT('part definition',#2,'design');
#10 = ADVANCED_BREP_SHAPE_REPRESENTATION('',(#11,#15),#315);
#11 = AXIS2_PLACEMENT_3D('',#12,#13,#14);
#12 = CARTESIAN_POINT('',(0.,0.,0.));
#13 = DIRECTION('',(0.,0.,1.));
#14 = DIRECTION('',(1.,0.,-0.));
#15 = MANIFOLD_SOLID_BREP('',#16);
#16 = CLOSED_SHELL('',(#17,#158,#212,#229,#257,#267,#276,#304));
#17 = ADVANCED_FACE('',(#18),#153,.T.);
#18 = FACE_BOUND('',#19,.F.);
#19 = EDGE_LOOP('',(#20,#30,#39,#47,#54,#55,#64,#72,#109,#118));
#20 = ORIENTED_EDGE('',*,*,#21,.F.);
#21 = EDGE_CURVE('',#22,#24,#26,.T.);
#22 = VERTEX_POINT('',#23);
#23 = CARTESIAN_POINT('',(-128.7999999999,-29.5,6.600000000003));
#24 = VERTEX_POINT('',#25);
#25 = CARTESIAN_POINT('',(-128.7999999999,-9.9,6.600000000002));
#26 = LINE('',#27,#28);
#27 = CARTESIAN_POINT('',(-128.7999999999,-33.5,6.600000000002));
#28 = VECTOR('',#29,1.);
#29 = DIRECTION('',(-0.,1.,-2.22044604925E-16));
#30 = ORIENTED_EDGE('',*,*,#31,.T.);
#31 = EDGE_CURVE('',#22,#32,#34,.T.);
#32 = VERTEX_POINT('',#33);
#33 = CARTESIAN_POINT('',(-109.,-29.5,6.550315845288E-15));
#34 = CIRCLE('',#35,11.);
#35 = AXIS2_PLACEMENT_3D('',#36,#37,#38);
#36 = CARTESIAN_POINT('',(-120.,-29.5,6.550315845288E-15));
#37 = DIRECTION('',(0.,-1.,2.22044604925E-16));
#38 = DIRECTION('',(1.,0.,0.));
#39 = ORIENTED_EDGE('',*,*,#40,.F.);
#40 = EDGE_CURVE('',#41,#32,#43,.T.);
#41 = VERTEX_POINT('',#42);
#42 = CARTESIAN_POINT('',(-109.,0.,0.));
#43 = LINE('',#44,#45);
#44 = CARTESIAN_POINT('',(-109.,0.,0.));
#45 = VECTOR('',#46,1.);
#46 = DIRECTION('',(0.,-1.,2.22044604925E-16));
#47 = ORIENTED_EDGE('',*,*,#48,.F.);
#48 = EDGE_CURVE('',#41,#41,#49,.T.);
#49 = CIRCLE('',#50,11.);
#50 = AXIS2_PLACEMENT_3D('',#51,#52,#53);
#51 = CARTESIAN_POINT('',(-120.,0.,0.));
#52 = DIRECTION('',(0.,-1.,2.22044604925E-16));
#53 = DIRECTION('',(1.,0.,0.));
#54 = ORIENTED_EDGE('',*,*,#40,.T.);
#55 = ORIENTED_EDGE('',*,*,#56,.T.);
#56 = EDGE_CURVE('',#32,#57,#59,.T.);
#57 = VERTEX_POINT('',#58);
#58 = CARTESIAN_POINT('',(-111.2,-29.5,6.600000000004));
#59 = CIRCLE('',#60,11.);
#60 = AXIS2_PLACEMENT_3D('',#61,#62,#63);
#61 = CARTESIAN_POINT('',(-120.,-29.5,6.550315845288E-15));
#62 = DIRECTION('',(0.,-1.,2.22044604925E-16));
#63 = DIRECTION('',(1.,0.,0.));
#64 = ORIENTED_EDGE('',*,*,#65,.T.);
#65 = EDGE_CURVE('',#57,#66,#68,.T.);
#66 = VERTEX_POINT('',#67);
#67 = CARTESIAN_POINT('',(-111.2,-9.9,6.600000000002));
#68 = LINE('',#69,#70);
#69 = CARTESIAN_POINT('',(-111.2,-33.5,6.600000000002));
#70 = VECTOR('',#71,1.);
#71 = DIRECTION('',(-0.,1.,-2.22044604925E-16));
#72 = ORIENTED_EDGE('',*,*,#73,.T.);
#73 = EDGE_CURVE('',#66,#74,#76,.T.);
#74 = VERTEX_POINT('',#75);
#75 = CARTESIAN_POINT('',(-114.6297179155,-6.9,9.600000000002));
#76 = B_SPLINE_CURVE_WITH_KNOTS('',6,(#77,#78,#79,#80,#81,#82,#83,#84,
    #85,#86,#87,#88,#89,#90,#91,#92,#93,#94,#95,#96,#97,#98,#99,#100,
    #101,#102,#103,#104,#105,#106,#107,#108),.UNSPECIFIED.,.F.,.F.,(7,5,
    5,5,5,5,7),(0.,0.173164282019,0.323557318229,0.438396248921,
    0.556953561062,0.677756900803,1.),.UNSPECIFIED.);
#77 = CARTESIAN_POINT('',(-111.2,-9.9,6.600000000002));
#78 = CARTESIAN_POINT('',(-111.2,-9.736775452513,6.600000000002));
#79 = CARTESIAN_POINT('',(-111.2079925879,-9.573556205535,6.61065686568)
  );
#80 = CARTESIAN_POINT('',(-111.2239773618,-9.41125141802,6.631969527267)
  );
#81 = CARTESIAN_POINT('',(-111.2480189003,-9.250805612001,6.663824172814
    ));
#82 = CARTESIAN_POINT('',(-111.280233559,-9.093193976159,6.705968492485)
  );
#83 = CARTESIAN_POINT('',(-111.3558594291,-8.805831955212,6.803095440253
    ));
#84 = CARTESIAN_POINT('',(-111.3972422644,-8.675138987041,6.855662477657
    ));
#85 = CARTESIAN_POINT('',(-111.4449047224,-8.547999565892,6.915344033828
    ));
#86 = CARTESIAN_POINT('',(-111.4988702582,-8.425076196842,6.981712212527
    ));
#87 = CARTESIAN_POINT('',(-111.5591031195,-8.306996573977,7.054199035915
    ));
#88 = CARTESIAN_POINT('',(-111.6760730628,-8.108271269172,7.191546546296
    ));
#89 = CARTESIAN_POINT('',(-111.7302752212,-8.025366738362,7.254164797497
    ));
#90 = CARTESIAN_POINT('',(-111.7879569584,-7.945849685663,7.319610346254
    ));
#91 = CARTESIAN_POINT('',(-111.8490104757,-7.869913961357,7.387526959024
    ));
#92 = CARTESIAN_POINT('',(-111.9132926962,-7.797699046288,7.457535811698
    ));
#93 = CARTESIAN_POINT('',(-112.05012795,-7.658667276544,7.603278667444)
  );
#94 = CARTESIAN_POINT('',(-112.1228873016,-7.592094957882,7.6791311239)
  );
#95 = CARTESIAN_POINT('',(-112.1987012867,-7.529665745979,7.756377166208
    ));
#96 = CARTESIAN_POINT('',(-112.277352438,-7.471388076639,7.834605673082)
  );
#97 = CARTESIAN_POINT('',(-112.3586116656,-7.417205637484,7.913433753377
    ));
#98 = CARTESIAN_POINT('',(-112.5274668045,-7.315875988276,8.073103731268
    ));
#99 = CARTESIAN_POINT('',(-112.6151564306,-7.268879940222,8.153958084866
    ));
#100 = CARTESIAN_POINT('',(-112.7050788351,-7.225914671912,
    8.234727180973));
#101 = CARTESIAN_POINT('',(-112.7970048887,-7.186816103255,8.31510783991
    ));
#102 = CARTESIAN_POINT('',(-112.8907230858,-7.151389620142,
    8.394849294326));
#103 = CARTESIAN_POINT('',(-113.2403319119,-7.034178444358,
    8.684229809374));
#104 = CARTESIAN_POINT('',(-113.5058088534,-6.973679153711,
    8.888542210696));
#105 = CARTESIAN_POINT('',(-113.7794458316,-6.93376443596,9.083353867995
    ));
#106 = CARTESIAN_POINT('',(-114.0588061583,-6.910334515316,
    9.267082148029));
#107 = CARTESIAN_POINT('',(-114.3423689934,-6.9,9.439259220518));
#108 = CARTESIAN_POINT('',(-114.6297113671,-6.9,9.600000000002));
#109 = ORIENTED_EDGE('',*,*,#110,.T.);
#110 = EDGE_CURVE('',#74,#111,#113,.T.);
#111 = VERTEX_POINT('',#112);
#112 = CARTESIAN_POINT('',(-125.3702820844,-6.9,9.600000000002));
#113 = CIRCLE('',#114,11.00000703336);
#114 = AXIS2_PLACEMENT_3D('',#115,#116,#117);
#115 = CARTESIAN_POINT('',(-120.,-6.9,-1.172226657734E-05));
#116 = DIRECTION('',(0.,-1.,2.22044604925E-16));
#117 = DIRECTION('',(1.,0.,0.));
#118 = ORIENTED_EDGE('',*,*,#119,.F.);
#119 = EDGE_CURVE('',#24,#111,#120,.T.);
#120 = B_SPLINE_CURVE_WITH_KNOTS('',6,(#121,#122,#123,#124,#125,#126,
    #127,#128,#129,#130,#131,#132,#133,#134,#135,#136,#137,#138,#139,
    #140,#141,#142,#143,#144,#145,#146,#147,#148,#149,#150,#151,#152),
  .UNSPECIFIED.,.F.,.F.,(7,5,5,5,5,5,7),(0.,0.173164282019,
    0.323557318228,0.438396248921,0.556953561061,0.677756900803,1.),
  .UNSPECIFIED.);
#121 = CARTESIAN_POINT('',(-128.7999999999,-9.9,6.600000000002));
#122 = CARTESIAN_POINT('',(-128.7999999999,-9.736775452513,
    6.600000000002));
#123 = CARTESIAN_POINT('',(-128.792007412,-9.573556205535,6.61065686568)
  );
#124 = CARTESIAN_POINT('',(-128.7760226381,-9.41125141802,6.631969527267
    ));
#125 = CARTESIAN_POINT('',(-128.7519810996,-9.250805612001,
    6.663824172814));
#126 = CARTESIAN_POINT('',(-128.7197664409,-9.093193976159,
    6.705968492485));
#127 = CARTESIAN_POINT('',(-128.6441405708,-8.805831955212,
    6.803095440253));
#128 = CARTESIAN_POINT('',(-128.6027577355,-8.675138987041,
    6.855662477657));
#129 = CARTESIAN_POINT('',(-128.5550952775,-8.547999565892,
    6.915344033828));
#130 = CARTESIAN_POINT('',(-128.5011297417,-8.425076196842,
    6.981712212527));
#131 = CARTESIAN_POINT('',(-128.4408968804,-8.306996573977,
    7.054199035915));
#132 = CARTESIAN_POINT('',(-128.3239269371,-8.108271269172,
    7.191546546296));
#133 = CARTESIAN_POINT('',(-128.2697247787,-8.025366738362,
    7.254164797497));
#134 = CARTESIAN_POINT('',(-128.2120430415,-7.945849685663,
    7.319610346254));
#135 = CARTESIAN_POINT('',(-128.1509895242,-7.869913961357,
    7.387526959024));
#136 = CARTESIAN_POINT('',(-128.0867073037,-7.797699046288,
    7.457535811698));
#137 = CARTESIAN_POINT('',(-127.9498720499,-7.658667276544,
    7.603278667444));
#138 = CARTESIAN_POINT('',(-127.8771126983,-7.592094957882,7.6791311239)
  );
#139 = CARTESIAN_POINT('',(-127.8012987132,-7.529665745979,
    7.756377166208));
#140 = CARTESIAN_POINT('',(-127.7226475619,-7.471388076639,
    7.834605673082));
#141 = CARTESIAN_POINT('',(-127.6413883343,-7.417205637484,
    7.913433753377));
#142 = CARTESIAN_POINT('',(-127.4725331954,-7.315875988276,
    8.073103731268));
#143 = CARTESIAN_POINT('',(-127.3848435693,-7.268879940222,
    8.153958084866));
#144 = CARTESIAN_POINT('',(-127.2949211648,-7.225914671912,
    8.234727180973));
#145 = CARTESIAN_POINT('',(-127.2029951112,-7.186816103255,8.31510783991
    ));
#146 = CARTESIAN_POINT('',(-127.1092769141,-7.151389620142,
    8.394849294326));
#147 = CARTESIAN_POINT('',(-126.759668088,-7.034178444358,8.684229809374
    ));
#148 = CARTESIAN_POINT('',(-126.4941911465,-6.973679153711,
    8.888542210696));
#149 = CARTESIAN_POINT('',(-126.2205541683,-6.93376443596,9.083353867995
    ));
#150 = CARTESIAN_POINT('',(-125.9411938416,-6.910334515316,
    9.267082148029));
#151 = CARTESIAN_POINT('',(-125.6576310065,-6.9,9.439259220518));
#152 = CARTESIAN_POINT('',(-125.3702886328,-6.9,9.600000000002));
#153 = CYLINDRICAL_SURFACE('',#154,11.);
#154 = AXIS2_PLACEMENT_3D('',#155,#156,#157);
#155 = CARTESIAN_POINT('',(-120.,0.,0.));
#156 = DIRECTION('',(-0.,1.,-2.22044604925E-16));
#157 = DIRECTION('',(1.,0.,0.));
#158 = ADVANCED_FACE('',(#159),#207,.F.);
#159 = FACE_BOUND('',#160,.F.);
#160 = EDGE_LOOP('',(#161,#162,#170,#178,#186,#194,#200,#201));
#161 = ORIENTED_EDGE('',*,*,#65,.F.);
#162 = ORIENTED_EDGE('',*,*,#163,.F.);
#163 = EDGE_CURVE('',#164,#57,#166,.T.);
#164 = VERTEX_POINT('',#165);
#165 = CARTESIAN_POINT('',(-117.8222718259,-29.5,6.600000000002));
#166 = LINE('',#167,#168);
#167 = CARTESIAN_POINT('',(-120.,-29.5,6.600000000002));
#168 = VECTOR('',#169,1.);
#169 = DIRECTION('',(1.,0.,0.));
#170 = ORIENTED_EDGE('',*,*,#171,.F.);
#171 = EDGE_CURVE('',#172,#164,#174,.T.);
#172 = VERTEX_POINT('',#173);
#173 = CARTESIAN_POINT('',(-117.8222718259,-33.5,6.600000000002));
#174 = LINE('',#175,#176);
#175 = CARTESIAN_POINT('',(-117.8222718259,-29.5,6.600000000002));
#176 = VECTOR('',#177,1.);
#177 = DIRECTION('',(-0.,1.,-2.22044604925E-16));
#178 = ORIENTED_EDGE('',*,*,#179,.T.);
#179 = EDGE_CURVE('',#172,#180,#182,.T.);
#180 = VERTEX_POINT('',#181);
#181 = CARTESIAN_POINT('',(-122.177728174,-33.5,6.600000000002));
#182 = LINE('',#183,#184);
#183 = CARTESIAN_POINT('',(-120.,-33.5,6.600000000002));
#184 = VECTOR('',#185,1.);
#185 = DIRECTION('',(-1.,0.,0.));
#186 = ORIENTED_EDGE('',*,*,#187,.T.);
#187 = EDGE_CURVE('',#180,#188,#190,.T.);
#188 = VERTEX_POINT('',#189);
#189 = CARTESIAN_POINT('',(-122.177728174,-29.5,6.600000000002));
#190 = LINE('',#191,#192);
#191 = CARTESIAN_POINT('',(-122.177728174,-29.5,6.600000000002));
#192 = VECTOR('',#193,1.);
#193 = DIRECTION('',(-0.,1.,-2.22044604925E-16));
#194 = ORIENTED_EDGE('',*,*,#195,.F.);
#195 = EDGE_CURVE('',#22,#188,#196,.T.);
#196 = LINE('',#197,#198);
#197 = CARTESIAN_POINT('',(-120.,-29.5,6.600000000002));
#198 = VECTOR('',#199,1.);
#199 = DIRECTION('',(1.,0.,0.));
#200 = ORIENTED_EDGE('',*,*,#21,.T.);
#201 = ORIENTED_EDGE('',*,*,#202,.T.);
#202 = EDGE_CURVE('',#24,#66,#203,.T.);
#203 = LINE('',#204,#205);
#204 = CARTESIAN_POINT('',(-128.7999999999,-9.9,6.600000000002));
#205 = VECTOR('',#206,1.);
#206 = DIRECTION('',(1.,0.,0.));
#207 = PLANE('',#208);
#208 = AXIS2_PLACEMENT_3D('',#209,#210,#211);
#209 = CARTESIAN_POINT('',(-120.,-20.2,6.600000000002));
#210 = DIRECTION('',(-0.,-2.22044604925E-16,-1.));
#211 = DIRECTION('',(0.,1.,-2.22044604925E-16));
#212 = ADVANCED_FACE('',(#213),#224,.F.);
#213 = FACE_BOUND('',#214,.F.);
#214 = EDGE_LOOP('',(#215,#216,#222,#223));
#215 = ORIENTED_EDGE('',*,*,#119,.T.);
#216 = ORIENTED_EDGE('',*,*,#217,.T.);
#217 = EDGE_CURVE('',#111,#74,#218,.T.);
#218 = LINE('',#219,#220);
#219 = CARTESIAN_POINT('',(-128.7999999999,-6.9,9.600000000002));
#220 = VECTOR('',#221,1.);
#221 = DIRECTION('',(1.,0.,0.));
#222 = ORIENTED_EDGE('',*,*,#73,.F.);
#223 = ORIENTED_EDGE('',*,*,#202,.F.);
#224 = CYLINDRICAL_SURFACE('',#225,3.);
#225 = AXIS2_PLACEMENT_3D('',#226,#227,#228);
#226 = CARTESIAN_POINT('',(-128.7999999999,-9.9,9.600000000002));
#227 = DIRECTION('',(1.,0.,0.));
#228 = DIRECTION('',(0.,-2.22044604925E-16,-1.));
#229 = ADVANCED_FACE('',(#230),#252,.T.);
#230 = FACE_BOUND('',#231,.T.);
#231 = EDGE_LOOP('',(#232,#233,#234,#235,#244,#251));
#232 = ORIENTED_EDGE('',*,*,#31,.T.);
#233 = ORIENTED_EDGE('',*,*,#56,.T.);
#234 = ORIENTED_EDGE('',*,*,#163,.F.);
#235 = ORIENTED_EDGE('',*,*,#236,.F.);
#236 = EDGE_CURVE('',#237,#164,#239,.T.);
#237 = VERTEX_POINT('',#238);
#238 = CARTESIAN_POINT('',(-113.05,-29.5,6.550315845288E-15));
#239 = CIRCLE('',#240,6.95);
#240 = AXIS2_PLACEMENT_3D('',#241,#242,#243);
#241 = CARTESIAN_POINT('',(-120.,-29.5,6.550315845288E-15));
#242 = DIRECTION('',(0.,-1.,2.22044604925E-16));
#243 = DIRECTION('',(1.,0.,0.));
#244 = ORIENTED_EDGE('',*,*,#245,.F.);
#245 = EDGE_CURVE('',#188,#237,#246,.T.);
#246 = CIRCLE('',#247,6.95);
#247 = AXIS2_PLACEMENT_3D('',#248,#249,#250);
#248 = CARTESIAN_POINT('',(-120.,-29.5,6.550315845288E-15));
#249 = DIRECTION('',(0.,-1.,2.22044604925E-16));
#250 = DIRECTION('',(1.,0.,0.));
#251 = ORIENTED_EDGE('',*,*,#195,.F.);
#252 = PLANE('',#253);
#253 = AXIS2_PLACEMENT_3D('',#254,#255,#256);
#254 = CARTESIAN_POINT('',(-120.,-29.5,6.600315845288E-15));
#255 = DIRECTION('',(0.,-1.,2.22044604925E-16));
#256 = DIRECTION('',(1.,0.,0.));
#257 = ADVANCED_FACE('',(#258),#262,.T.);
#258 = FACE_BOUND('',#259,.T.);
#259 = EDGE_LOOP('',(#260,#261));
#260 = ORIENTED_EDGE('',*,*,#110,.T.);
#261 = ORIENTED_EDGE('',*,*,#217,.T.);
#262 = PLANE('',#263);
#263 = AXIS2_PLACEMENT_3D('',#264,#265,#266);
#264 = CARTESIAN_POINT('',(-120.,-6.9,7.977900343175));
#265 = DIRECTION('',(0.,-1.,2.22044604925E-16));
#266 = DIRECTION('',(1.,0.,0.));
#267 = ADVANCED_FACE('',(#268),#271,.F.);
#268 = FACE_BOUND('',#269,.F.);
#269 = EDGE_LOOP('',(#270));
#270 = ORIENTED_EDGE('',*,*,#48,.T.);
#271 = PLANE('',#272);
#272 = AXIS2_PLACEMENT_3D('',#273,#274,#275);
#273 = CARTESIAN_POINT('',(-120.,1.110223024625E-32,5.E-17));
#274 = DIRECTION('',(0.,-1.,2.22044604925E-16));
#275 = DIRECTION('',(1.,0.,0.));
#276 = ADVANCED_FACE('',(#277),#299,.T.);
#277 = FACE_BOUND('',#278,.F.);
#278 = EDGE_LOOP('',(#279,#280,#281,#282,#283,#292));
#279 = ORIENTED_EDGE('',*,*,#171,.T.);
#280 = ORIENTED_EDGE('',*,*,#236,.F.);
#281 = ORIENTED_EDGE('',*,*,#245,.F.);
#282 = ORIENTED_EDGE('',*,*,#187,.F.);
#283 = ORIENTED_EDGE('',*,*,#284,.T.);
#284 = EDGE_CURVE('',#180,#285,#287,.T.);
#285 = VERTEX_POINT('',#286);
#286 = CARTESIAN_POINT('',(-113.05,-33.5,7.438494264989E-15));
#287 = CIRCLE('',#288,6.95);
#288 = AXIS2_PLACEMENT_3D('',#289,#290,#291);
#289 = CARTESIAN_POINT('',(-120.,-33.5,7.438494264989E-15));
#290 = DIRECTION('',(0.,-1.,2.22044604925E-16));
#291 = DIRECTION('',(1.,0.,0.));
#292 = ORIENTED_EDGE('',*,*,#293,.T.);
#293 = EDGE_CURVE('',#285,#172,#294,.T.);
#294 = CIRCLE('',#295,6.95);
#295 = AXIS2_PLACEMENT_3D('',#296,#297,#298);
#296 = CARTESIAN_POINT('',(-120.,-33.5,7.438494264989E-15));
#297 = DIRECTION('',(0.,-1.,2.22044604925E-16));
#298 = DIRECTION('',(1.,0.,0.));
#299 = CYLINDRICAL_SURFACE('',#300,6.95);
#300 = AXIS2_PLACEMENT_3D('',#301,#302,#303);
#301 = CARTESIAN_POINT('',(-120.,-29.5,6.550315845288E-15));
#302 = DIRECTION('',(-0.,1.,-2.22044604925E-16));
#303 = DIRECTION('',(1.,0.,0.));
#304 = ADVANCED_FACE('',(#305),#310,.T.);
#305 = FACE_BOUND('',#306,.T.);
#306 = EDGE_LOOP('',(#307,#308,#309));
#307 = ORIENTED_EDGE('',*,*,#284,.T.);
#308 = ORIENTED_EDGE('',*,*,#293,.T.);
#309 = ORIENTED_EDGE('',*,*,#179,.T.);
#310 = PLANE('',#311);
#311 = AXIS2_PLACEMENT_3D('',#312,#313,#314);
#312 = CARTESIAN_POINT('',(-120.,-33.5,7.548494264989E-15));
#313 = DIRECTION('',(0.,-1.,2.22044604925E-16));
#314 = DIRECTION('',(1.,0.,0.));
#315 = ( GEOMETRIC_REPRESENTATION_CONTEXT(3) 
GLOBAL_UNCERTAINTY_ASSIGNED_CONTEXT((#319)) GLOBAL_UNIT_ASSIGNED_CONTEXT
((#316,#317,#318)) REPRESENTATION_CONTEXT('Context #1',
  '3D Context with UNIT and UNCERTAINTY') );
#316 = ( LENGTH_UNIT() NAMED_UNIT(*) SI_UNIT(.MILLI.,.METRE.) );
#317 = ( NAMED_UNIT(*) PLANE_ANGLE_UNIT() SI_UNIT($,.RADIAN.) );
#318 = ( NAMED_UNIT(*) SI_UNIT($,.STERADIAN.) SOLID_ANGLE_UNIT() );
#319 = UNCERTAINTY_MEASURE_WITH_UNIT(LENGTH_MEASURE(1.E-05),#316,
  'distance_accuracy_value','confusion accuracy');
#320 = PRODUCT_RELATED_PRODUCT_CATEGORY('part',$,(#7));
#321 = MECHANICAL_DESIGN_GEOMETRIC_PRESENTATION_REPRESENTATION('',(#322)
  ,#315);
#322 = STYLED_ITEM('color',(#323),#15);
#323 = PRESENTATION_STYLE_ASSIGNMENT((#324,#330));
#324 = SURFACE_STYLE_USAGE(.BOTH.,#325);
#325 = SURFACE_SIDE_STYLE('',(#326));
#326 = SURFACE_STYLE_FILL_AREA(#327);
#327 = FILL_AREA_STYLE('',(#328));
#328 = FILL_AREA_STYLE_COLOUR('',#329);
#329 = COLOUR_RGB('',6.666667149455E-02,0.701960807317,0.215686275495);
#330 = CURVE_STYLE('',#331,POSITIVE_LENGTH_MEASURE(0.1),#329);
#331 = DRAUGHTING_PRE_DEFINED_CURVE_FONT('continuous');
ENDSEC;
END-ISO-10303-21;
