ISO-10303-21;
HEADER;
FILE_DESCRIPTION(('FreeCAD Model'),'2;1');
FILE_NAME('Open CASCADE Shape Model','2026-09-08T09:58:24',('FreeCAD'),(
    'FreeCAD'),'Open CASCADE STEP processor 7.8','FreeCAD','Unknown');
FILE_SCHEMA(('AUTOMOTIVE_DESIGN { 1 0 10303 214 1 1 1 1 }'));
ENDSEC;
DATA;
#1 = APPLICATION_PROTOCOL_DEFINITION('international standard',
  'automotive_design',2000,#2);
#2 = APPLICATION_CONTEXT(
  'core data for automotive mechanical design processes');
#3 = SHAPE_DEFINITION_REPRESENTATION(#4,#10);
#4 = PRODUCT_DEFINITION_SHAPE('','',#5);
#5 = PRODUCT_DEFINITION('design','',#6,#9);
#6 = PRODUCT_DEFINITION_FORMATION('','',#7);
#7 = PRODUCT('Open CASCADE STEP translator 7.8 3',
  'Open CASCADE STEP translator 7.8 3','',(#8));
#8 = PRODUCT_CONTEXT('',#2,'mechanical');
#9 = PRODUCT_DEFINITION_CONTEXT('part definition',#2,'design');
#10 = ADVANCED_BREP_SHAPE_REPRESENTATION('',(#11,#15),#413);
#11 = AXIS2_PLACEMENT_3D('',#12,#13,#14);
#12 = CARTESIAN_POINT('',(0.,0.,0.));
#13 = DIRECTION('',(0.,0.,1.));
#14 = DIRECTION('',(1.,0.,-0.));
#15 = MANIFOLD_SOLID_BREP('',#16);
#16 = CLOSED_SHELL('',(#17,#158,#180,#190,#239,#267,#304,#332,#343,#374,
    #399));
#17 = ADVANCED_FACE('',(#18),#153,.T.);
#18 = FACE_BOUND('',#19,.T.);
#19 = EDGE_LOOP('',(#20,#59,#68,#105,#113,#122,#130,#137,#138,#147));
#20 = ORIENTED_EDGE('',*,*,#21,.T.);
#21 = EDGE_CURVE('',#22,#24,#26,.T.);
#22 = VERTEX_POINT('',#23);
#23 = CARTESIAN_POINT('',(-128.7999999999,-9.9,6.600000000002));
#24 = VERTEX_POINT('',#25);
#25 = CARTESIAN_POINT('',(-125.3702820844,-6.9,9.600000000002));
#26 = B_SPLINE_CURVE_WITH_KNOTS('',6,(#27,#28,#29,#30,#31,#32,#33,#34,
    #35,#36,#37,#38,#39,#40,#41,#42,#43,#44,#45,#46,#47,#48,#49,#50,#51,
    #52,#53,#54,#55,#56,#57,#58),.UNSPECIFIED.,.F.,.F.,(7,5,5,5,5,5,7),(
    0.,0.173164282019,0.323557318228,0.438396248921,0.556953561061,
    0.677756900803,1.),.UNSPECIFIED.);
#27 = CARTESIAN_POINT('',(-128.7999999999,-9.9,6.600000000002));
#28 = CARTESIAN_POINT('',(-128.7999999999,-9.736775452513,6.600000000002
    ));
#29 = CARTESIAN_POINT('',(-128.792007412,-9.573556205535,6.61065686568)
  );
#30 = CARTESIAN_POINT('',(-128.7760226381,-9.41125141802,6.631969527267)
  );
#31 = CARTESIAN_POINT('',(-128.7519810996,-9.250805612001,6.663824172814
    ));
#32 = CARTESIAN_POINT('',(-128.7197664409,-9.093193976159,6.705968492485
    ));
#33 = CARTESIAN_POINT('',(-128.6441405708,-8.805831955212,6.803095440253
    ));
#34 = CARTESIAN_POINT('',(-128.6027577355,-8.675138987041,6.855662477657
    ));
#35 = CARTESIAN_POINT('',(-128.5550952775,-8.547999565892,6.915344033828
    ));
#36 = CARTESIAN_POINT('',(-128.5011297417,-8.425076196842,6.981712212527
    ));
#37 = CARTESIAN_POINT('',(-128.4408968804,-8.306996573977,7.054199035915
    ));
#38 = CARTESIAN_POINT('',(-128.3239269371,-8.108271269172,7.191546546296
    ));
#39 = CARTESIAN_POINT('',(-128.2697247787,-8.025366738362,7.254164797497
    ));
#40 = CARTESIAN_POINT('',(-128.2120430415,-7.945849685663,7.319610346254
    ));
#41 = CARTESIAN_POINT('',(-128.1509895242,-7.869913961357,7.387526959024
    ));
#42 = CARTESIAN_POINT('',(-128.0867073037,-7.797699046288,7.457535811698
    ));
#43 = CARTESIAN_POINT('',(-127.9498720499,-7.658667276544,7.603278667444
    ));
#44 = CARTESIAN_POINT('',(-127.8771126983,-7.592094957882,7.6791311239)
  );
#45 = CARTESIAN_POINT('',(-127.8012987132,-7.529665745979,7.756377166208
    ));
#46 = CARTESIAN_POINT('',(-127.7226475619,-7.471388076639,7.834605673082
    ));
#47 = CARTESIAN_POINT('',(-127.6413883343,-7.417205637484,7.913433753377
    ));
#48 = CARTESIAN_POINT('',(-127.4725331954,-7.315875988276,8.073103731268
    ));
#49 = CARTESIAN_POINT('',(-127.3848435693,-7.268879940222,8.153958084866
    ));
#50 = CARTESIAN_POINT('',(-127.2949211648,-7.225914671912,8.234727180973
    ));
#51 = CARTESIAN_POINT('',(-127.2029951112,-7.186816103255,8.31510783991)
  );
#52 = CARTESIAN_POINT('',(-127.1092769141,-7.151389620142,8.394849294326
    ));
#53 = CARTESIAN_POINT('',(-126.759668088,-7.034178444358,8.684229809374)
  );
#54 = CARTESIAN_POINT('',(-126.4941911465,-6.973679153711,8.888542210696
    ));
#55 = CARTESIAN_POINT('',(-126.2205541683,-6.93376443596,9.083353867995)
  );
#56 = CARTESIAN_POINT('',(-125.9411938416,-6.910334515316,9.267082148029
    ));
#57 = CARTESIAN_POINT('',(-125.6576310065,-6.9,9.439259220518));
#58 = CARTESIAN_POINT('',(-125.3702886328,-6.9,9.600000000002));
#59 = ORIENTED_EDGE('',*,*,#60,.F.);
#60 = EDGE_CURVE('',#61,#24,#63,.T.);
#61 = VERTEX_POINT('',#62);
#62 = CARTESIAN_POINT('',(-114.6297179155,-6.9,9.600000000002));
#63 = CIRCLE('',#64,11.00000703336);
#64 = AXIS2_PLACEMENT_3D('',#65,#66,#67);
#65 = CARTESIAN_POINT('',(-120.,-6.9,-1.172226657734E-05));
#66 = DIRECTION('',(0.,-1.,2.2E-16));
#67 = DIRECTION('',(1.,0.,0.));
#68 = ORIENTED_EDGE('',*,*,#69,.F.);
#69 = EDGE_CURVE('',#70,#61,#72,.T.);
#70 = VERTEX_POINT('',#71);
#71 = CARTESIAN_POINT('',(-111.2,-9.9,6.600000000002));
#72 = B_SPLINE_CURVE_WITH_KNOTS('',6,(#73,#74,#75,#76,#77,#78,#79,#80,
    #81,#82,#83,#84,#85,#86,#87,#88,#89,#90,#91,#92,#93,#94,#95,#96,#97,
    #98,#99,#100,#101,#102,#103,#104),.UNSPECIFIED.,.F.,.F.,(7,5,5,5,5,5
    ,7),(0.,0.173164282019,0.323557318229,0.438396248921,0.556953561062,
    0.677756900803,1.),.UNSPECIFIED.);
#73 = CARTESIAN_POINT('',(-111.2,-9.9,6.600000000002));
#74 = CARTESIAN_POINT('',(-111.2,-9.736775452513,6.600000000002));
#75 = CARTESIAN_POINT('',(-111.2079925879,-9.573556205535,6.61065686568)
  );
#76 = CARTESIAN_POINT('',(-111.2239773618,-9.41125141802,6.631969527267)
  );
#77 = CARTESIAN_POINT('',(-111.2480189003,-9.250805612001,6.663824172814
    ));
#78 = CARTESIAN_POINT('',(-111.280233559,-9.093193976159,6.705968492485)
  );
#79 = CARTESIAN_POINT('',(-111.3558594291,-8.805831955212,6.803095440253
    ));
#80 = CARTESIAN_POINT('',(-111.3972422644,-8.675138987041,6.855662477657
    ));
#81 = CARTESIAN_POINT('',(-111.4449047224,-8.547999565892,6.915344033828
    ));
#82 = CARTESIAN_POINT('',(-111.4988702582,-8.425076196842,6.981712212527
    ));
#83 = CARTESIAN_POINT('',(-111.5591031195,-8.306996573977,7.054199035915
    ));
#84 = CARTESIAN_POINT('',(-111.6760730628,-8.108271269172,7.191546546296
    ));
#85 = CARTESIAN_POINT('',(-111.7302752212,-8.025366738362,7.254164797497
    ));
#86 = CARTESIAN_POINT('',(-111.7879569584,-7.945849685663,7.319610346254
    ));
#87 = CARTESIAN_POINT('',(-111.8490104757,-7.869913961357,7.387526959024
    ));
#88 = CARTESIAN_POINT('',(-111.9132926962,-7.797699046288,7.457535811698
    ));
#89 = CARTESIAN_POINT('',(-112.05012795,-7.658667276544,7.603278667444)
  );
#90 = CARTESIAN_POINT('',(-112.1228873016,-7.592094957882,7.6791311239)
  );
#91 = CARTESIAN_POINT('',(-112.1987012867,-7.529665745979,7.756377166208
    ));
#92 = CARTESIAN_POINT('',(-112.277352438,-7.471388076639,7.834605673082)
  );
#93 = CARTESIAN_POINT('',(-112.3586116656,-7.417205637484,7.913433753377
    ));
#94 = CARTESIAN_POINT('',(-112.5274668045,-7.315875988276,8.073103731268
    ));
#95 = CARTESIAN_POINT('',(-112.6151564306,-7.268879940222,8.153958084866
    ));
#96 = CARTESIAN_POINT('',(-112.7050788351,-7.225914671912,8.234727180973
    ));
#97 = CARTESIAN_POINT('',(-112.7970048887,-7.186816103255,8.31510783991)
  );
#98 = CARTESIAN_POINT('',(-112.8907230858,-7.151389620142,8.394849294326
    ));
#99 = CARTESIAN_POINT('',(-113.2403319119,-7.034178444358,8.684229809374
    ));
#100 = CARTESIAN_POINT('',(-113.5058088534,-6.973679153711,
    8.888542210696));
#101 = CARTESIAN_POINT('',(-113.7794458316,-6.93376443596,9.083353867995
    ));
#102 = CARTESIAN_POINT('',(-114.0588061583,-6.910334515316,
    9.267082148029));
#103 = CARTESIAN_POINT('',(-114.3423689934,-6.9,9.439259220518));
#104 = CARTESIAN_POINT('',(-114.6297113671,-6.9,9.600000000002));
#105 = ORIENTED_EDGE('',*,*,#106,.F.);
#106 = EDGE_CURVE('',#107,#70,#109,.T.);
#107 = VERTEX_POINT('',#108);
#108 = CARTESIAN_POINT('',(-111.2,-29.5,6.600000000004));
#109 = LINE('',#110,#111);
#110 = CARTESIAN_POINT('',(-111.2,-33.5,6.600000000002));
#111 = VECTOR('',#112,1.);
#112 = DIRECTION('',(0.,1.,-2.2E-16));
#113 = ORIENTED_EDGE('',*,*,#114,.F.);
#114 = EDGE_CURVE('',#115,#107,#117,.T.);
#115 = VERTEX_POINT('',#116);
#116 = CARTESIAN_POINT('',(-109.,-29.5,7.E-15));
#117 = CIRCLE('',#118,11.);
#118 = AXIS2_PLACEMENT_3D('',#119,#120,#121);
#119 = CARTESIAN_POINT('',(-120.,-29.5,6.55E-15));
#120 = DIRECTION('',(0.,-1.,2.2E-16));
#121 = DIRECTION('',(1.,0.,0.));
#122 = ORIENTED_EDGE('',*,*,#123,.F.);
#123 = EDGE_CURVE('',#124,#115,#126,.T.);
#124 = VERTEX_POINT('',#125);
#125 = CARTESIAN_POINT('',(-109.,0.,0.));
#126 = LINE('',#127,#128);
#127 = CARTESIAN_POINT('',(-109.,0.,0.));
#128 = VECTOR('',#129,1.);
#129 = DIRECTION('',(0.,-1.,2.2E-16));
#130 = ORIENTED_EDGE('',*,*,#131,.T.);
#131 = EDGE_CURVE('',#124,#124,#132,.T.);
#132 = CIRCLE('',#133,11.);
#133 = AXIS2_PLACEMENT_3D('',#134,#135,#136);
#134 = CARTESIAN_POINT('',(-120.,0.,0.));
#135 = DIRECTION('',(0.,-1.,2.2E-16));
#136 = DIRECTION('',(1.,0.,0.));
#137 = ORIENTED_EDGE('',*,*,#123,.T.);
#138 = ORIENTED_EDGE('',*,*,#139,.F.);
#139 = EDGE_CURVE('',#140,#115,#142,.T.);
#140 = VERTEX_POINT('',#141);
#141 = CARTESIAN_POINT('',(-128.7999999999,-29.5,6.600000000003));
#142 = CIRCLE('',#143,11.);
#143 = AXIS2_PLACEMENT_3D('',#144,#145,#146);
#144 = CARTESIAN_POINT('',(-120.,-29.5,6.55E-15));
#145 = DIRECTION('',(0.,-1.,2.2E-16));
#146 = DIRECTION('',(1.,0.,0.));
#147 = ORIENTED_EDGE('',*,*,#148,.T.);
#148 = EDGE_CURVE('',#140,#22,#149,.T.);
#149 = LINE('',#150,#151);
#150 = CARTESIAN_POINT('',(-128.7999999999,-33.5,6.600000000002));
#151 = VECTOR('',#152,1.);
#152 = DIRECTION('',(0.,1.,-2.2E-16));
#153 = CYLINDRICAL_SURFACE('',#154,11.);
#154 = AXIS2_PLACEMENT_3D('',#155,#156,#157);
#155 = CARTESIAN_POINT('',(-120.,0.,0.));
#156 = DIRECTION('',(0.,1.,-2.2E-16));
#157 = DIRECTION('',(1.,0.,0.));
#158 = ADVANCED_FACE('',(#159),#175,.F.);
#159 = FACE_BOUND('',#160,.F.);
#160 = EDGE_LOOP('',(#161,#162,#168,#169));
#161 = ORIENTED_EDGE('',*,*,#21,.T.);
#162 = ORIENTED_EDGE('',*,*,#163,.T.);
#163 = EDGE_CURVE('',#24,#61,#164,.T.);
#164 = LINE('',#165,#166);
#165 = CARTESIAN_POINT('',(-128.7999999999,-6.9,9.600000000002));
#166 = VECTOR('',#167,1.);
#167 = DIRECTION('',(1.,0.,0.));
#168 = ORIENTED_EDGE('',*,*,#69,.F.);
#169 = ORIENTED_EDGE('',*,*,#170,.F.);
#170 = EDGE_CURVE('',#22,#70,#171,.T.);
#171 = LINE('',#172,#173);
#172 = CARTESIAN_POINT('',(-128.7999999999,-9.9,6.600000000002));
#173 = VECTOR('',#174,1.);
#174 = DIRECTION('',(1.,0.,0.));
#175 = CYLINDRICAL_SURFACE('',#176,3.);
#176 = AXIS2_PLACEMENT_3D('',#177,#178,#179);
#177 = CARTESIAN_POINT('',(-128.7999999999,-9.9,9.600000000002));
#178 = DIRECTION('',(1.,0.,0.));
#179 = DIRECTION('',(0.,-2.2E-16,-1.));
#180 = ADVANCED_FACE('',(#181),#185,.T.);
#181 = FACE_BOUND('',#182,.T.);
#182 = EDGE_LOOP('',(#183,#184));
#183 = ORIENTED_EDGE('',*,*,#60,.T.);
#184 = ORIENTED_EDGE('',*,*,#163,.T.);
#185 = PLANE('',#186);
#186 = AXIS2_PLACEMENT_3D('',#187,#188,#189);
#187 = CARTESIAN_POINT('',(-120.,-6.9,7.977900343175));
#188 = DIRECTION('',(0.,-1.,2.2E-16));
#189 = DIRECTION('',(1.,0.,0.));
#190 = ADVANCED_FACE('',(#191),#234,.F.);
#191 = FACE_BOUND('',#192,.F.);
#192 = EDGE_LOOP('',(#193,#194,#202,#210,#218,#226,#232,#233));
#193 = ORIENTED_EDGE('',*,*,#106,.F.);
#194 = ORIENTED_EDGE('',*,*,#195,.F.);
#195 = EDGE_CURVE('',#196,#107,#198,.T.);
#196 = VERTEX_POINT('',#197);
#197 = CARTESIAN_POINT('',(-117.8222718259,-29.5,6.600000000002));
#198 = LINE('',#199,#200);
#199 = CARTESIAN_POINT('',(-120.,-29.5,6.600000000002));
#200 = VECTOR('',#201,1.);
#201 = DIRECTION('',(1.,0.,0.));
#202 = ORIENTED_EDGE('',*,*,#203,.F.);
#203 = EDGE_CURVE('',#204,#196,#206,.T.);
#204 = VERTEX_POINT('',#205);
#205 = CARTESIAN_POINT('',(-117.8222718259,-33.5,6.600000000002));
#206 = LINE('',#207,#208);
#207 = CARTESIAN_POINT('',(-117.8222718259,-29.5,6.600000000002));
#208 = VECTOR('',#209,1.);
#209 = DIRECTION('',(0.,1.,-2.2E-16));
#210 = ORIENTED_EDGE('',*,*,#211,.T.);
#211 = EDGE_CURVE('',#204,#212,#214,.T.);
#212 = VERTEX_POINT('',#213);
#213 = CARTESIAN_POINT('',(-122.177728174,-33.5,6.600000000002));
#214 = LINE('',#215,#216);
#215 = CARTESIAN_POINT('',(-120.,-33.5,6.600000000002));
#216 = VECTOR('',#217,1.);
#217 = DIRECTION('',(-1.,0.,0.));
#218 = ORIENTED_EDGE('',*,*,#219,.T.);
#219 = EDGE_CURVE('',#212,#220,#222,.T.);
#220 = VERTEX_POINT('',#221);
#221 = CARTESIAN_POINT('',(-122.177728174,-29.5,6.600000000002));
#222 = LINE('',#223,#224);
#223 = CARTESIAN_POINT('',(-122.177728174,-29.5,6.600000000002));
#224 = VECTOR('',#225,1.);
#225 = DIRECTION('',(0.,1.,-2.2E-16));
#226 = ORIENTED_EDGE('',*,*,#227,.F.);
#227 = EDGE_CURVE('',#140,#220,#228,.T.);
#228 = LINE('',#229,#230);
#229 = CARTESIAN_POINT('',(-120.,-29.5,6.600000000002));
#230 = VECTOR('',#231,1.);
#231 = DIRECTION('',(1.,0.,0.));
#232 = ORIENTED_EDGE('',*,*,#148,.T.);
#233 = ORIENTED_EDGE('',*,*,#170,.T.);
#234 = PLANE('',#235);
#235 = AXIS2_PLACEMENT_3D('',#236,#237,#238);
#236 = CARTESIAN_POINT('',(-120.,-20.2,6.600000000002));
#237 = DIRECTION('',(-0.,-2.2E-16,-1.));
#238 = DIRECTION('',(0.,1.,-2.2E-16));
#239 = ADVANCED_FACE('',(#240),#262,.T.);
#240 = FACE_BOUND('',#241,.T.);
#241 = EDGE_LOOP('',(#242,#243,#244,#245,#254,#261));
#242 = ORIENTED_EDGE('',*,*,#139,.T.);
#243 = ORIENTED_EDGE('',*,*,#114,.T.);
#244 = ORIENTED_EDGE('',*,*,#195,.F.);
#245 = ORIENTED_EDGE('',*,*,#246,.F.);
#246 = EDGE_CURVE('',#247,#196,#249,.T.);
#247 = VERTEX_POINT('',#248);
#248 = CARTESIAN_POINT('',(-113.05,-29.5,7.E-15));
#249 = CIRCLE('',#250,6.95);
#250 = AXIS2_PLACEMENT_3D('',#251,#252,#253);
#251 = CARTESIAN_POINT('',(-120.,-29.5,6.55E-15));
#252 = DIRECTION('',(0.,-1.,2.2E-16));
#253 = DIRECTION('',(1.,0.,0.));
#254 = ORIENTED_EDGE('',*,*,#255,.F.);
#255 = EDGE_CURVE('',#220,#247,#256,.T.);
#256 = CIRCLE('',#257,6.95);
#257 = AXIS2_PLACEMENT_3D('',#258,#259,#260);
#258 = CARTESIAN_POINT('',(-120.,-29.5,6.55E-15));
#259 = DIRECTION('',(0.,-1.,2.2E-16));
#260 = DIRECTION('',(1.,0.,0.));
#261 = ORIENTED_EDGE('',*,*,#227,.F.);
#262 = PLANE('',#263);
#263 = AXIS2_PLACEMENT_3D('',#264,#265,#266);
#264 = CARTESIAN_POINT('',(-120.,-29.5,6.6E-15));
#265 = DIRECTION('',(0.,-1.,2.2E-16));
#266 = DIRECTION('',(1.,0.,0.));
#267 = ADVANCED_FACE('',(#268,#271),#299,.F.);
#268 = FACE_BOUND('',#269,.F.);
#269 = EDGE_LOOP('',(#270));
#270 = ORIENTED_EDGE('',*,*,#131,.T.);
#271 = FACE_BOUND('',#272,.F.);
#272 = EDGE_LOOP('',(#273,#284,#293));
#273 = ORIENTED_EDGE('',*,*,#274,.T.);
#274 = EDGE_CURVE('',#275,#277,#279,.T.);
#275 = VERTEX_POINT('',#276);
#276 = CARTESIAN_POINT('',(-113.0717967697,0.,4.));
#277 = VERTEX_POINT('',#278);
#278 = CARTESIAN_POINT('',(-120.,0.,-8.));
#279 = CIRCLE('',#280,8.);
#280 = AXIS2_PLACEMENT_3D('',#281,#282,#283);
#281 = CARTESIAN_POINT('',(-120.,0.,0.));
#282 = DIRECTION('',(0.,1.,0.));
#283 = DIRECTION('',(0.,0.,1.));
#284 = ORIENTED_EDGE('',*,*,#285,.T.);
#285 = EDGE_CURVE('',#277,#286,#288,.T.);
#286 = VERTEX_POINT('',#287);
#287 = CARTESIAN_POINT('',(-126.9282032302,0.,4.));
#288 = CIRCLE('',#289,8.);
#289 = AXIS2_PLACEMENT_3D('',#290,#291,#292);
#290 = CARTESIAN_POINT('',(-120.,0.,0.));
#291 = DIRECTION('',(0.,1.,0.));
#292 = DIRECTION('',(0.,0.,1.));
#293 = ORIENTED_EDGE('',*,*,#294,.T.);
#294 = EDGE_CURVE('',#286,#275,#295,.T.);
#295 = LINE('',#296,#297);
#296 = CARTESIAN_POINT('',(-129.,0.,4.));
#297 = VECTOR('',#298,1.);
#298 = DIRECTION('',(1.,0.,0.));
#299 = PLANE('',#300);
#300 = AXIS2_PLACEMENT_3D('',#301,#302,#303);
#301 = CARTESIAN_POINT('',(-120.,0.,5.E-17));
#302 = DIRECTION('',(0.,-1.,2.2E-16));
#303 = DIRECTION('',(1.,0.,0.));
#304 = ADVANCED_FACE('',(#305),#327,.T.);
#305 = FACE_BOUND('',#306,.T.);
#306 = EDGE_LOOP('',(#307,#316,#323,#324,#325,#326));
#307 = ORIENTED_EDGE('',*,*,#308,.F.);
#308 = EDGE_CURVE('',#309,#204,#311,.T.);
#309 = VERTEX_POINT('',#310);
#310 = CARTESIAN_POINT('',(-113.05,-33.5,7.E-15));
#311 = CIRCLE('',#312,6.95);
#312 = AXIS2_PLACEMENT_3D('',#313,#314,#315);
#313 = CARTESIAN_POINT('',(-120.,-33.5,7.44E-15));
#314 = DIRECTION('',(0.,-1.,2.2E-16));
#315 = DIRECTION('',(1.,0.,0.));
#316 = ORIENTED_EDGE('',*,*,#317,.F.);
#317 = EDGE_CURVE('',#212,#309,#318,.T.);
#318 = CIRCLE('',#319,6.95);
#319 = AXIS2_PLACEMENT_3D('',#320,#321,#322);
#320 = CARTESIAN_POINT('',(-120.,-33.5,7.44E-15));
#321 = DIRECTION('',(0.,-1.,2.2E-16));
#322 = DIRECTION('',(1.,0.,0.));
#323 = ORIENTED_EDGE('',*,*,#219,.T.);
#324 = ORIENTED_EDGE('',*,*,#255,.T.);
#325 = ORIENTED_EDGE('',*,*,#246,.T.);
#326 = ORIENTED_EDGE('',*,*,#203,.F.);
#327 = CYLINDRICAL_SURFACE('',#328,6.95);
#328 = AXIS2_PLACEMENT_3D('',#329,#330,#331);
#329 = CARTESIAN_POINT('',(-120.,-29.5,6.55E-15));
#330 = DIRECTION('',(0.,1.,-2.2E-16));
#331 = DIRECTION('',(1.,0.,0.));
#332 = ADVANCED_FACE('',(#333),#338,.T.);
#333 = FACE_BOUND('',#334,.T.);
#334 = EDGE_LOOP('',(#335,#336,#337));
#335 = ORIENTED_EDGE('',*,*,#317,.T.);
#336 = ORIENTED_EDGE('',*,*,#308,.T.);
#337 = ORIENTED_EDGE('',*,*,#211,.T.);
#338 = PLANE('',#339);
#339 = AXIS2_PLACEMENT_3D('',#340,#341,#342);
#340 = CARTESIAN_POINT('',(-120.,-33.5,7.55E-15));
#341 = DIRECTION('',(0.,-1.,2.2E-16));
#342 = DIRECTION('',(1.,0.,0.));
#343 = ADVANCED_FACE('',(#344),#369,.T.);
#344 = FACE_BOUND('',#345,.T.);
#345 = EDGE_LOOP('',(#346,#356,#362,#363));
#346 = ORIENTED_EDGE('',*,*,#347,.F.);
#347 = EDGE_CURVE('',#348,#350,#352,.T.);
#348 = VERTEX_POINT('',#349);
#349 = CARTESIAN_POINT('',(-126.9282032302,12.,4.));
#350 = VERTEX_POINT('',#351);
#351 = CARTESIAN_POINT('',(-113.0717967697,12.,4.));
#352 = LINE('',#353,#354);
#353 = CARTESIAN_POINT('',(-129.,12.,4.));
#354 = VECTOR('',#355,1.);
#355 = DIRECTION('',(1.,0.,0.));
#356 = ORIENTED_EDGE('',*,*,#357,.F.);
#357 = EDGE_CURVE('',#286,#348,#358,.T.);
#358 = LINE('',#359,#360);
#359 = CARTESIAN_POINT('',(-126.9282032302,0.,4.));
#360 = VECTOR('',#361,1.);
#361 = DIRECTION('',(0.,1.,0.));
#362 = ORIENTED_EDGE('',*,*,#294,.T.);
#363 = ORIENTED_EDGE('',*,*,#364,.T.);
#364 = EDGE_CURVE('',#275,#350,#365,.T.);
#365 = LINE('',#366,#367);
#366 = CARTESIAN_POINT('',(-113.0717967697,0.,4.));
#367 = VECTOR('',#368,1.);
#368 = DIRECTION('',(0.,1.,0.));
#369 = PLANE('',#370);
#370 = AXIS2_PLACEMENT_3D('',#371,#372,#373);
#371 = CARTESIAN_POINT('',(-129.,0.,4.));
#372 = DIRECTION('',(0.,0.,1.));
#373 = DIRECTION('',(1.,0.,0.));
#374 = ADVANCED_FACE('',(#375),#394,.T.);
#375 = FACE_BOUND('',#376,.T.);
#376 = EDGE_LOOP('',(#377,#378,#387));
#377 = ORIENTED_EDGE('',*,*,#347,.T.);
#378 = ORIENTED_EDGE('',*,*,#379,.T.);
#379 = EDGE_CURVE('',#350,#380,#382,.T.);
#380 = VERTEX_POINT('',#381);
#381 = CARTESIAN_POINT('',(-120.,12.,-8.));
#382 = CIRCLE('',#383,8.);
#383 = AXIS2_PLACEMENT_3D('',#384,#385,#386);
#384 = CARTESIAN_POINT('',(-120.,12.,0.));
#385 = DIRECTION('',(0.,1.,0.));
#386 = DIRECTION('',(0.,0.,1.));
#387 = ORIENTED_EDGE('',*,*,#388,.T.);
#388 = EDGE_CURVE('',#380,#348,#389,.T.);
#389 = CIRCLE('',#390,8.);
#390 = AXIS2_PLACEMENT_3D('',#391,#392,#393);
#391 = CARTESIAN_POINT('',(-120.,12.,0.));
#392 = DIRECTION('',(0.,1.,0.));
#393 = DIRECTION('',(0.,0.,1.));
#394 = PLANE('',#395);
#395 = AXIS2_PLACEMENT_3D('',#396,#397,#398);
#396 = CARTESIAN_POINT('',(-120.,12.,0.));
#397 = DIRECTION('',(0.,1.,0.));
#398 = DIRECTION('',(0.,0.,1.));
#399 = ADVANCED_FACE('',(#400),#408,.T.);
#400 = FACE_BOUND('',#401,.T.);
#401 = EDGE_LOOP('',(#402,#403,#404,#405,#406,#407));
#402 = ORIENTED_EDGE('',*,*,#388,.F.);
#403 = ORIENTED_EDGE('',*,*,#379,.F.);
#404 = ORIENTED_EDGE('',*,*,#364,.F.);
#405 = ORIENTED_EDGE('',*,*,#274,.T.);
#406 = ORIENTED_EDGE('',*,*,#285,.T.);
#407 = ORIENTED_EDGE('',*,*,#357,.T.);
#408 = CYLINDRICAL_SURFACE('',#409,8.);
#409 = AXIS2_PLACEMENT_3D('',#410,#411,#412);
#410 = CARTESIAN_POINT('',(-120.,0.,0.));
#411 = DIRECTION('',(0.,1.,0.));
#412 = DIRECTION('',(0.,0.,1.));
#413 = ( GEOMETRIC_REPRESENTATION_CONTEXT(3) 
GLOBAL_UNCERTAINTY_ASSIGNED_CONTEXT((#417)) GLOBAL_UNIT_ASSIGNED_CONTEXT
((#414,#415,#416)) REPRESENTATION_CONTEXT('Context #1',
  '3D Context with UNIT and UNCERTAINTY') );
#414 = ( LENGTH_UNIT() NAMED_UNIT(*) SI_UNIT(.MILLI.,.METRE.) );
#415 = ( NAMED_UNIT(*) PLANE_ANGLE_UNIT() SI_UNIT($,.RADIAN.) );
#416 = ( NAMED_UNIT(*) SI_UNIT($,.STERADIAN.) SOLID_ANGLE_UNIT() );
#417 = UNCERTAINTY_MEASURE_WITH_UNIT(LENGTH_MEASURE(5.E-07),#414,
  'distance_accuracy_value','confusion accuracy');
#418 = PRODUCT_RELATED_PRODUCT_CATEGORY('part',$,(#7));
ENDSEC;
END-ISO-10303-21;
