ISO-10303-21;
HEADER;
FILE_DESCRIPTION(('FreeCAD Model'),'2;1');
FILE_NAME('Open CASCADE Shape Model','2026-06-16T15:20:49',(''),(''),
  'Open CASCADE STEP processor 7.8','FreeCAD','Unknown');
FILE_SCHEMA(('AUTOMOTIVE_DESIGN { 1 0 10303 214 1 1 1 1 }'));
ENDSEC;
DATA;
#1 = APPLICATION_PROTOCOL_DEFINITION('international standard',
  'automotive_design',2000,#2);
#2 = APPLICATION_CONTEXT(
  'core data for automotive mechanical design processes');
#3 = SHAPE_DEFINITION_REPRESENTATION(#4,#10);
#4 = PRODUCT_DEFINITION_SHAPE('','',#5);
#5 = PRODUCT_DEFINITION('design','',#6,#9);
#6 = PRODUCT_DEFINITION_FORMATION('','',#7);
#7 = PRODUCT('ControllerPortFemale','ControllerPortFemale','',(#8));
#8 = PRODUCT_CONTEXT('',#2,'mechanical');
#9 = PRODUCT_DEFINITION_CONTEXT('part definition',#2,'design');
#10 = ADVANCED_BREP_SHAPE_REPRESENTATION('',(#11,#15),#461);
#11 = AXIS2_PLACEMENT_3D('',#12,#13,#14);
#12 = CARTESIAN_POINT('',(0.,0.,0.));
#13 = DIRECTION('',(0.,0.,1.));
#14 = DIRECTION('',(1.,0.,-0.));
#15 = MANIFOLD_SOLID_BREP('',#16);
#16 = CLOSED_SHELL('',(#17,#59,#129,#154,#179,#196,#228,#253,#278,#295,
    #307,#353,#384,#408,#432,#449));
#17 = ADVANCED_FACE('',(#18),#54,.T.);
#18 = FACE_BOUND('',#19,.F.);
#19 = EDGE_LOOP('',(#20,#31,#39,#48));
#20 = ORIENTED_EDGE('',*,*,#21,.F.);
#21 = EDGE_CURVE('',#22,#24,#26,.T.);
#22 = VERTEX_POINT('',#23);
#23 = CARTESIAN_POINT('',(118.96719673498,-1.E-15,-3.827777777778));
#24 = VERTEX_POINT('',#25);
#25 = CARTESIAN_POINT('',(101.03280326501,-1.E-15,-3.827777777778));
#26 = CIRCLE('',#27,9.75);
#27 = AXIS2_PLACEMENT_3D('',#28,#29,#30);
#28 = CARTESIAN_POINT('',(110.,0.,0.));
#29 = DIRECTION('',(0.,-1.,0.));
#30 = DIRECTION('',(1.,0.,0.));
#31 = ORIENTED_EDGE('',*,*,#32,.T.);
#32 = EDGE_CURVE('',#22,#33,#35,.T.);
#33 = VERTEX_POINT('',#34);
#34 = CARTESIAN_POINT('',(118.96719673498,-14.,-3.827777777778));
#35 = LINE('',#36,#37);
#36 = CARTESIAN_POINT('',(118.96719673498,-8.5E-16,-3.827777777778));
#37 = VECTOR('',#38,1.);
#38 = DIRECTION('',(0.,-1.,2.2E-16));
#39 = ORIENTED_EDGE('',*,*,#40,.T.);
#40 = EDGE_CURVE('',#33,#41,#43,.T.);
#41 = VERTEX_POINT('',#42);
#42 = CARTESIAN_POINT('',(101.03280326501,-14.,-3.827777777778));
#43 = CIRCLE('',#44,9.75);
#44 = AXIS2_PLACEMENT_3D('',#45,#46,#47);
#45 = CARTESIAN_POINT('',(110.,-14.,3.E-15));
#46 = DIRECTION('',(0.,-1.,0.));
#47 = DIRECTION('',(1.,0.,0.));
#48 = ORIENTED_EDGE('',*,*,#49,.F.);
#49 = EDGE_CURVE('',#24,#41,#50,.T.);
#50 = LINE('',#51,#52);
#51 = CARTESIAN_POINT('',(101.03280326501,-8.5E-16,-3.827777777778));
#52 = VECTOR('',#53,1.);
#53 = DIRECTION('',(0.,-1.,2.2E-16));
#54 = CYLINDRICAL_SURFACE('',#55,9.75);
#55 = AXIS2_PLACEMENT_3D('',#56,#57,#58);
#56 = CARTESIAN_POINT('',(110.,0.,0.));
#57 = DIRECTION('',(0.,1.,-2.2E-16));
#58 = DIRECTION('',(1.,0.,0.));
#59 = ADVANCED_FACE('',(#60,#97),#124,.F.);
#60 = FACE_BOUND('',#61,.F.);
#61 = EDGE_LOOP('',(#62,#73,#82,#90));
#62 = ORIENTED_EDGE('',*,*,#63,.T.);
#63 = EDGE_CURVE('',#64,#66,#68,.T.);
#64 = VERTEX_POINT('',#65);
#65 = CARTESIAN_POINT('',(100.64091884851,-1.E-15,-4.76));
#66 = VERTEX_POINT('',#67);
#67 = CARTESIAN_POINT('',(119.35908115148,-1.E-15,-4.76));
#68 = CIRCLE('',#69,10.5);
#69 = AXIS2_PLACEMENT_3D('',#70,#71,#72);
#70 = CARTESIAN_POINT('',(110.,0.,0.));
#71 = DIRECTION('',(0.,1.,-0.));
#72 = DIRECTION('',(-1.,0.,0.));
#73 = ORIENTED_EDGE('',*,*,#74,.T.);
#74 = EDGE_CURVE('',#66,#75,#77,.T.);
#75 = VERTEX_POINT('',#76);
#76 = CARTESIAN_POINT('',(116.68505796534,-1.E-15,-6.4));
#77 = CIRCLE('',#78,3.);
#78 = AXIS2_PLACEMENT_3D('',#79,#80,#81);
#79 = CARTESIAN_POINT('',(116.68505796534,1.9E-16,-3.4));
#80 = DIRECTION('',(0.,1.,-2.2E-16));
#81 = DIRECTION('',(0.,2.2E-16,1.));
#82 = ORIENTED_EDGE('',*,*,#83,.T.);
#83 = EDGE_CURVE('',#75,#84,#86,.T.);
#84 = VERTEX_POINT('',#85);
#85 = CARTESIAN_POINT('',(103.31494203465,-1.E-15,-6.4));
#86 = LINE('',#87,#88);
#87 = CARTESIAN_POINT('',(118.32406150866,0.,-6.4));
#88 = VECTOR('',#89,1.);
#89 = DIRECTION('',(-1.,0.,0.));
#90 = ORIENTED_EDGE('',*,*,#91,.F.);
#91 = EDGE_CURVE('',#64,#84,#92,.T.);
#92 = CIRCLE('',#93,3.);
#93 = AXIS2_PLACEMENT_3D('',#94,#95,#96);
#94 = CARTESIAN_POINT('',(103.31494203465,1.9E-16,-3.4));
#95 = DIRECTION('',(0.,-1.,2.2E-16));
#96 = DIRECTION('',(0.,2.2E-16,1.));
#97 = FACE_BOUND('',#98,.F.);
#98 = EDGE_LOOP('',(#99,#109,#116,#117));
#99 = ORIENTED_EDGE('',*,*,#100,.T.);
#100 = EDGE_CURVE('',#101,#103,#105,.T.);
#101 = VERTEX_POINT('',#102);
#102 = CARTESIAN_POINT('',(103.79194072193,-1.E-15,-5.65));
#103 = VERTEX_POINT('',#104);
#104 = CARTESIAN_POINT('',(116.20805927806,-1.E-15,-5.65));
#105 = LINE('',#106,#107);
#106 = CARTESIAN_POINT('',(102.05393178987,0.,-5.65));
#107 = VECTOR('',#108,1.);
#108 = DIRECTION('',(1.,0.,0.));
#109 = ORIENTED_EDGE('',*,*,#110,.F.);
#110 = EDGE_CURVE('',#22,#103,#111,.T.);
#111 = CIRCLE('',#112,3.);
#112 = AXIS2_PLACEMENT_3D('',#113,#114,#115);
#113 = CARTESIAN_POINT('',(116.20805927806,1.9E-16,-2.65));
#114 = DIRECTION('',(0.,1.,-2.2E-16));
#115 = DIRECTION('',(0.,-2.2E-16,-1.));
#116 = ORIENTED_EDGE('',*,*,#21,.T.);
#117 = ORIENTED_EDGE('',*,*,#118,.T.);
#118 = EDGE_CURVE('',#24,#101,#119,.T.);
#119 = CIRCLE('',#120,3.);
#120 = AXIS2_PLACEMENT_3D('',#121,#122,#123);
#121 = CARTESIAN_POINT('',(103.79194072193,1.9E-16,-2.65));
#122 = DIRECTION('',(0.,-1.,2.2E-16));
#123 = DIRECTION('',(0.,-2.2E-16,-1.));
#124 = PLANE('',#125);
#125 = AXIS2_PLACEMENT_3D('',#126,#127,#128);
#126 = CARTESIAN_POINT('',(110.,1.9E-16,0.376430098863));
#127 = DIRECTION('',(0.,1.,0.));
#128 = DIRECTION('',(0.,0.,1.));
#129 = ADVANCED_FACE('',(#130),#149,.T.);
#130 = FACE_BOUND('',#131,.F.);
#131 = EDGE_LOOP('',(#132,#133,#141,#148));
#132 = ORIENTED_EDGE('',*,*,#110,.T.);
#133 = ORIENTED_EDGE('',*,*,#134,.T.);
#134 = EDGE_CURVE('',#103,#135,#137,.T.);
#135 = VERTEX_POINT('',#136);
#136 = CARTESIAN_POINT('',(116.20805927806,-14.,-5.65));
#137 = LINE('',#138,#139);
#138 = CARTESIAN_POINT('',(116.20805927806,-1.25E-15,-5.65));
#139 = VECTOR('',#140,1.);
#140 = DIRECTION('',(0.,-1.,2.2E-16));
#141 = ORIENTED_EDGE('',*,*,#142,.F.);
#142 = EDGE_CURVE('',#33,#135,#143,.T.);
#143 = CIRCLE('',#144,3.);
#144 = AXIS2_PLACEMENT_3D('',#145,#146,#147);
#145 = CARTESIAN_POINT('',(116.20805927806,-14.,-2.65));
#146 = DIRECTION('',(0.,1.,-2.2E-16));
#147 = DIRECTION('',(0.,-2.2E-16,-1.));
#148 = ORIENTED_EDGE('',*,*,#32,.F.);
#149 = CYLINDRICAL_SURFACE('',#150,3.);
#150 = AXIS2_PLACEMENT_3D('',#151,#152,#153);
#151 = CARTESIAN_POINT('',(116.20805927806,-5.9E-16,-2.65));
#152 = DIRECTION('',(0.,-1.,2.2E-16));
#153 = DIRECTION('',(0.91971248564,-8.637037037037E-17,-0.392592592593)
  );
#154 = ADVANCED_FACE('',(#155),#174,.T.);
#155 = FACE_BOUND('',#156,.T.);
#156 = EDGE_LOOP('',(#157,#158,#166,#173));
#157 = ORIENTED_EDGE('',*,*,#118,.T.);
#158 = ORIENTED_EDGE('',*,*,#159,.T.);
#159 = EDGE_CURVE('',#101,#160,#162,.T.);
#160 = VERTEX_POINT('',#161);
#161 = CARTESIAN_POINT('',(103.79194072193,-14.,-5.65));
#162 = LINE('',#163,#164);
#163 = CARTESIAN_POINT('',(103.79194072193,-1.25E-15,-5.65));
#164 = VECTOR('',#165,1.);
#165 = DIRECTION('',(0.,-1.,2.2E-16));
#166 = ORIENTED_EDGE('',*,*,#167,.F.);
#167 = EDGE_CURVE('',#41,#160,#168,.T.);
#168 = CIRCLE('',#169,3.);
#169 = AXIS2_PLACEMENT_3D('',#170,#171,#172);
#170 = CARTESIAN_POINT('',(103.79194072193,-14.,-2.65));
#171 = DIRECTION('',(0.,-1.,2.2E-16));
#172 = DIRECTION('',(0.,-2.2E-16,-1.));
#173 = ORIENTED_EDGE('',*,*,#49,.F.);
#174 = CYLINDRICAL_SURFACE('',#175,3.);
#175 = AXIS2_PLACEMENT_3D('',#176,#177,#178);
#176 = CARTESIAN_POINT('',(103.79194072193,-5.9E-16,-2.65));
#177 = DIRECTION('',(0.,-1.,2.2E-16));
#178 = DIRECTION('',(-0.91971248564,-8.637037037037E-17,-0.392592592593)
  );
#179 = ADVANCED_FACE('',(#180),#191,.F.);
#180 = FACE_BOUND('',#181,.F.);
#181 = EDGE_LOOP('',(#182,#183,#184,#190));
#182 = ORIENTED_EDGE('',*,*,#40,.F.);
#183 = ORIENTED_EDGE('',*,*,#142,.T.);
#184 = ORIENTED_EDGE('',*,*,#185,.F.);
#185 = EDGE_CURVE('',#160,#135,#186,.T.);
#186 = LINE('',#187,#188);
#187 = CARTESIAN_POINT('',(102.05393178987,-14.,-5.65));
#188 = VECTOR('',#189,1.);
#189 = DIRECTION('',(1.,0.,0.));
#190 = ORIENTED_EDGE('',*,*,#167,.F.);
#191 = PLANE('',#192);
#192 = AXIS2_PLACEMENT_3D('',#193,#194,#195);
#193 = CARTESIAN_POINT('',(110.,-14.,0.468426751986));
#194 = DIRECTION('',(0.,1.,0.));
#195 = DIRECTION('',(0.,0.,1.));
#196 = ADVANCED_FACE('',(#197),#223,.T.);
#197 = FACE_BOUND('',#198,.F.);
#198 = EDGE_LOOP('',(#199,#200,#208,#217));
#199 = ORIENTED_EDGE('',*,*,#63,.F.);
#200 = ORIENTED_EDGE('',*,*,#201,.T.);
#201 = EDGE_CURVE('',#64,#202,#204,.T.);
#202 = VERTEX_POINT('',#203);
#203 = CARTESIAN_POINT('',(100.64091884851,1.5,-4.76));
#204 = LINE('',#205,#206);
#205 = CARTESIAN_POINT('',(100.64091884851,-9.5E-16,-4.76));
#206 = VECTOR('',#207,1.);
#207 = DIRECTION('',(0.,1.,-2.2E-16));
#208 = ORIENTED_EDGE('',*,*,#209,.T.);
#209 = EDGE_CURVE('',#202,#210,#212,.T.);
#210 = VERTEX_POINT('',#211);
#211 = CARTESIAN_POINT('',(119.35908115148,1.5,-4.76));
#212 = CIRCLE('',#213,10.5);
#213 = AXIS2_PLACEMENT_3D('',#214,#215,#216);
#214 = CARTESIAN_POINT('',(110.,1.5,0.));
#215 = DIRECTION('',(0.,1.,-0.));
#216 = DIRECTION('',(-1.,0.,0.));
#217 = ORIENTED_EDGE('',*,*,#218,.F.);
#218 = EDGE_CURVE('',#66,#210,#219,.T.);
#219 = LINE('',#220,#221);
#220 = CARTESIAN_POINT('',(119.35908115148,-9.5E-16,-4.76));
#221 = VECTOR('',#222,1.);
#222 = DIRECTION('',(0.,1.,-2.2E-16));
#223 = CYLINDRICAL_SURFACE('',#224,10.5);
#224 = AXIS2_PLACEMENT_3D('',#225,#226,#227);
#225 = CARTESIAN_POINT('',(110.,1.E-16,0.));
#226 = DIRECTION('',(0.,-1.,2.2E-16));
#227 = DIRECTION('',(-1.,0.,0.));
#228 = ADVANCED_FACE('',(#229),#248,.T.);
#229 = FACE_BOUND('',#230,.F.);
#230 = EDGE_LOOP('',(#231,#232,#240,#247));
#231 = ORIENTED_EDGE('',*,*,#91,.T.);
#232 = ORIENTED_EDGE('',*,*,#233,.T.);
#233 = EDGE_CURVE('',#84,#234,#236,.T.);
#234 = VERTEX_POINT('',#235);
#235 = CARTESIAN_POINT('',(103.31494203465,1.5,-6.4));
#236 = LINE('',#237,#238);
#237 = CARTESIAN_POINT('',(103.31494203465,-1.32E-15,-6.4));
#238 = VECTOR('',#239,1.);
#239 = DIRECTION('',(0.,1.,-2.2E-16));
#240 = ORIENTED_EDGE('',*,*,#241,.F.);
#241 = EDGE_CURVE('',#202,#234,#242,.T.);
#242 = CIRCLE('',#243,3.);
#243 = AXIS2_PLACEMENT_3D('',#244,#245,#246);
#244 = CARTESIAN_POINT('',(103.31494203465,1.5,-3.4));
#245 = DIRECTION('',(0.,-1.,2.2E-16));
#246 = DIRECTION('',(0.,2.2E-16,1.));
#247 = ORIENTED_EDGE('',*,*,#201,.F.);
#248 = CYLINDRICAL_SURFACE('',#249,3.);
#249 = AXIS2_PLACEMENT_3D('',#250,#251,#252);
#250 = CARTESIAN_POINT('',(103.31494203465,-6.5E-16,-3.4));
#251 = DIRECTION('',(0.,1.,-2.2E-16));
#252 = DIRECTION('',(-0.891341062046,-9.973333333333E-17,-0.453333333333
    ));
#253 = ADVANCED_FACE('',(#254),#273,.T.);
#254 = FACE_BOUND('',#255,.T.);
#255 = EDGE_LOOP('',(#256,#257,#265,#272));
#256 = ORIENTED_EDGE('',*,*,#74,.T.);
#257 = ORIENTED_EDGE('',*,*,#258,.T.);
#258 = EDGE_CURVE('',#75,#259,#261,.T.);
#259 = VERTEX_POINT('',#260);
#260 = CARTESIAN_POINT('',(116.68505796534,1.5,-6.4));
#261 = LINE('',#262,#263);
#262 = CARTESIAN_POINT('',(116.68505796534,-1.32E-15,-6.4));
#263 = VECTOR('',#264,1.);
#264 = DIRECTION('',(0.,1.,-2.2E-16));
#265 = ORIENTED_EDGE('',*,*,#266,.F.);
#266 = EDGE_CURVE('',#210,#259,#267,.T.);
#267 = CIRCLE('',#268,3.);
#268 = AXIS2_PLACEMENT_3D('',#269,#270,#271);
#269 = CARTESIAN_POINT('',(116.68505796534,1.5,-3.4));
#270 = DIRECTION('',(0.,1.,-2.2E-16));
#271 = DIRECTION('',(0.,2.2E-16,1.));
#272 = ORIENTED_EDGE('',*,*,#218,.F.);
#273 = CYLINDRICAL_SURFACE('',#274,3.);
#274 = AXIS2_PLACEMENT_3D('',#275,#276,#277);
#275 = CARTESIAN_POINT('',(116.68505796534,-6.5E-16,-3.4));
#276 = DIRECTION('',(0.,1.,-2.2E-16));
#277 = DIRECTION('',(0.891341062046,-9.973333333333E-17,-0.453333333333)
  );
#278 = ADVANCED_FACE('',(#279),#290,.F.);
#279 = FACE_BOUND('',#280,.F.);
#280 = EDGE_LOOP('',(#281,#282,#283,#289));
#281 = ORIENTED_EDGE('',*,*,#83,.F.);
#282 = ORIENTED_EDGE('',*,*,#258,.T.);
#283 = ORIENTED_EDGE('',*,*,#284,.T.);
#284 = EDGE_CURVE('',#259,#234,#285,.T.);
#285 = LINE('',#286,#287);
#286 = CARTESIAN_POINT('',(118.32406150866,1.5,-6.4));
#287 = VECTOR('',#288,1.);
#288 = DIRECTION('',(-1.,0.,0.));
#289 = ORIENTED_EDGE('',*,*,#233,.F.);
#290 = PLANE('',#291);
#291 = AXIS2_PLACEMENT_3D('',#292,#293,#294);
#292 = CARTESIAN_POINT('',(118.32406150866,-1.32E-15,-6.4));
#293 = DIRECTION('',(0.,2.2E-16,1.));
#294 = DIRECTION('',(-1.,0.,0.));
#295 = ADVANCED_FACE('',(#296),#302,.F.);
#296 = FACE_BOUND('',#297,.F.);
#297 = EDGE_LOOP('',(#298,#299,#300,#301));
#298 = ORIENTED_EDGE('',*,*,#100,.F.);
#299 = ORIENTED_EDGE('',*,*,#159,.T.);
#300 = ORIENTED_EDGE('',*,*,#185,.T.);
#301 = ORIENTED_EDGE('',*,*,#134,.F.);
#302 = PLANE('',#303);
#303 = AXIS2_PLACEMENT_3D('',#304,#305,#306);
#304 = CARTESIAN_POINT('',(102.05393178987,-1.25E-15,-5.65));
#305 = DIRECTION('',(0.,2.2E-16,1.));
#306 = DIRECTION('',(1.,0.,0.));
#307 = ADVANCED_FACE('',(#308,#314),#348,.T.);
#308 = FACE_BOUND('',#309,.T.);
#309 = EDGE_LOOP('',(#310,#311,#312,#313));
#310 = ORIENTED_EDGE('',*,*,#209,.T.);
#311 = ORIENTED_EDGE('',*,*,#266,.T.);
#312 = ORIENTED_EDGE('',*,*,#284,.T.);
#313 = ORIENTED_EDGE('',*,*,#241,.F.);
#314 = FACE_BOUND('',#315,.T.);
#315 = EDGE_LOOP('',(#316,#326,#334,#342));
#316 = ORIENTED_EDGE('',*,*,#317,.F.);
#317 = EDGE_CURVE('',#318,#320,#322,.T.);
#318 = VERTEX_POINT('',#319);
#319 = CARTESIAN_POINT('',(116.25,1.5,-3.));
#320 = VERTEX_POINT('',#321);
#321 = CARTESIAN_POINT('',(103.75,1.5,-3.));
#322 = LINE('',#323,#324);
#323 = CARTESIAN_POINT('',(116.25,1.5,-3.));
#324 = VECTOR('',#325,1.);
#325 = DIRECTION('',(-1.,0.,0.));
#326 = ORIENTED_EDGE('',*,*,#327,.F.);
#327 = EDGE_CURVE('',#328,#318,#330,.T.);
#328 = VERTEX_POINT('',#329);
#329 = CARTESIAN_POINT('',(116.25,1.5,3.));
#330 = LINE('',#331,#332);
#331 = CARTESIAN_POINT('',(116.25,1.5,3.));
#332 = VECTOR('',#333,1.);
#333 = DIRECTION('',(0.,0.,-1.));
#334 = ORIENTED_EDGE('',*,*,#335,.F.);
#335 = EDGE_CURVE('',#336,#328,#338,.T.);
#336 = VERTEX_POINT('',#337);
#337 = CARTESIAN_POINT('',(103.75,1.5,3.));
#338 = LINE('',#339,#340);
#339 = CARTESIAN_POINT('',(103.75,1.5,3.));
#340 = VECTOR('',#341,1.);
#341 = DIRECTION('',(1.,0.,0.));
#342 = ORIENTED_EDGE('',*,*,#343,.F.);
#343 = EDGE_CURVE('',#320,#336,#344,.T.);
#344 = LINE('',#345,#346);
#345 = CARTESIAN_POINT('',(103.75,1.5,-3.));
#346 = VECTOR('',#347,1.);
#347 = DIRECTION('',(0.,0.,1.));
#348 = PLANE('',#349);
#349 = AXIS2_PLACEMENT_3D('',#350,#351,#352);
#350 = CARTESIAN_POINT('',(110.,1.5,0.376430098863));
#351 = DIRECTION('',(0.,1.,0.));
#352 = DIRECTION('',(0.,0.,1.));
#353 = ADVANCED_FACE('',(#354),#379,.F.);
#354 = FACE_BOUND('',#355,.F.);
#355 = EDGE_LOOP('',(#356,#364,#372,#378));
#356 = ORIENTED_EDGE('',*,*,#357,.T.);
#357 = EDGE_CURVE('',#318,#358,#360,.T.);
#358 = VERTEX_POINT('',#359);
#359 = CARTESIAN_POINT('',(116.25,3.5,-3.));
#360 = LINE('',#361,#362);
#361 = CARTESIAN_POINT('',(116.25,1.5,-3.));
#362 = VECTOR('',#363,1.);
#363 = DIRECTION('',(0.,1.,-2.2E-16));
#364 = ORIENTED_EDGE('',*,*,#365,.T.);
#365 = EDGE_CURVE('',#358,#366,#368,.T.);
#366 = VERTEX_POINT('',#367);
#367 = CARTESIAN_POINT('',(103.75,3.5,-3.));
#368 = LINE('',#369,#370);
#369 = CARTESIAN_POINT('',(116.25,3.5,-3.));
#370 = VECTOR('',#371,1.);
#371 = DIRECTION('',(-1.,0.,0.));
#372 = ORIENTED_EDGE('',*,*,#373,.F.);
#373 = EDGE_CURVE('',#320,#366,#374,.T.);
#374 = LINE('',#375,#376);
#375 = CARTESIAN_POINT('',(103.75,1.5,-3.));
#376 = VECTOR('',#377,1.);
#377 = DIRECTION('',(0.,1.,-2.2E-16));
#378 = ORIENTED_EDGE('',*,*,#317,.F.);
#379 = PLANE('',#380);
#380 = AXIS2_PLACEMENT_3D('',#381,#382,#383);
#381 = CARTESIAN_POINT('',(116.25,1.5,-3.));
#382 = DIRECTION('',(0.,2.2E-16,1.));
#383 = DIRECTION('',(-1.,0.,0.));
#384 = ADVANCED_FACE('',(#385),#403,.F.);
#385 = FACE_BOUND('',#386,.F.);
#386 = EDGE_LOOP('',(#387,#388,#396,#402));
#387 = ORIENTED_EDGE('',*,*,#373,.T.);
#388 = ORIENTED_EDGE('',*,*,#389,.T.);
#389 = EDGE_CURVE('',#366,#390,#392,.T.);
#390 = VERTEX_POINT('',#391);
#391 = CARTESIAN_POINT('',(103.75,3.5,3.));
#392 = LINE('',#393,#394);
#393 = CARTESIAN_POINT('',(103.75,3.5,-3.));
#394 = VECTOR('',#395,1.);
#395 = DIRECTION('',(0.,0.,1.));
#396 = ORIENTED_EDGE('',*,*,#397,.F.);
#397 = EDGE_CURVE('',#336,#390,#398,.T.);
#398 = LINE('',#399,#400);
#399 = CARTESIAN_POINT('',(103.75,1.5,3.));
#400 = VECTOR('',#401,1.);
#401 = DIRECTION('',(0.,1.,-2.2E-16));
#402 = ORIENTED_EDGE('',*,*,#343,.F.);
#403 = PLANE('',#404);
#404 = AXIS2_PLACEMENT_3D('',#405,#406,#407);
#405 = CARTESIAN_POINT('',(103.75,1.5,-3.));
#406 = DIRECTION('',(1.,0.,0.));
#407 = DIRECTION('',(0.,2.2E-16,1.));
#408 = ADVANCED_FACE('',(#409),#427,.F.);
#409 = FACE_BOUND('',#410,.F.);
#410 = EDGE_LOOP('',(#411,#412,#420,#426));
#411 = ORIENTED_EDGE('',*,*,#397,.T.);
#412 = ORIENTED_EDGE('',*,*,#413,.T.);
#413 = EDGE_CURVE('',#390,#414,#416,.T.);
#414 = VERTEX_POINT('',#415);
#415 = CARTESIAN_POINT('',(116.25,3.5,3.));
#416 = LINE('',#417,#418);
#417 = CARTESIAN_POINT('',(103.75,3.5,3.));
#418 = VECTOR('',#419,1.);
#419 = DIRECTION('',(1.,0.,0.));
#420 = ORIENTED_EDGE('',*,*,#421,.F.);
#421 = EDGE_CURVE('',#328,#414,#422,.T.);
#422 = LINE('',#423,#424);
#423 = CARTESIAN_POINT('',(116.25,1.5,3.));
#424 = VECTOR('',#425,1.);
#425 = DIRECTION('',(0.,1.,-2.2E-16));
#426 = ORIENTED_EDGE('',*,*,#335,.F.);
#427 = PLANE('',#428);
#428 = AXIS2_PLACEMENT_3D('',#429,#430,#431);
#429 = CARTESIAN_POINT('',(103.75,1.5,3.));
#430 = DIRECTION('',(0.,-2.2E-16,-1.));
#431 = DIRECTION('',(1.,0.,0.));
#432 = ADVANCED_FACE('',(#433),#444,.F.);
#433 = FACE_BOUND('',#434,.F.);
#434 = EDGE_LOOP('',(#435,#436,#442,#443));
#435 = ORIENTED_EDGE('',*,*,#421,.T.);
#436 = ORIENTED_EDGE('',*,*,#437,.T.);
#437 = EDGE_CURVE('',#414,#358,#438,.T.);
#438 = LINE('',#439,#440);
#439 = CARTESIAN_POINT('',(116.25,3.5,3.));
#440 = VECTOR('',#441,1.);
#441 = DIRECTION('',(0.,0.,-1.));
#442 = ORIENTED_EDGE('',*,*,#357,.F.);
#443 = ORIENTED_EDGE('',*,*,#327,.F.);
#444 = PLANE('',#445);
#445 = AXIS2_PLACEMENT_3D('',#446,#447,#448);
#446 = CARTESIAN_POINT('',(116.25,1.5,3.));
#447 = DIRECTION('',(-1.,0.,0.));
#448 = DIRECTION('',(0.,-2.2E-16,-1.));
#449 = ADVANCED_FACE('',(#450),#456,.T.);
#450 = FACE_BOUND('',#451,.T.);
#451 = EDGE_LOOP('',(#452,#453,#454,#455));
#452 = ORIENTED_EDGE('',*,*,#365,.T.);
#453 = ORIENTED_EDGE('',*,*,#389,.T.);
#454 = ORIENTED_EDGE('',*,*,#413,.T.);
#455 = ORIENTED_EDGE('',*,*,#437,.T.);
#456 = PLANE('',#457);
#457 = AXIS2_PLACEMENT_3D('',#458,#459,#460);
#458 = CARTESIAN_POINT('',(110.,3.5,0.));
#459 = DIRECTION('',(0.,1.,0.));
#460 = DIRECTION('',(0.,0.,1.));
#461 = ( GEOMETRIC_REPRESENTATION_CONTEXT(3) 
GLOBAL_UNCERTAINTY_ASSIGNED_CONTEXT((#465)) GLOBAL_UNIT_ASSIGNED_CONTEXT
((#462,#463,#464)) REPRESENTATION_CONTEXT('Context #1',
  '3D Context with UNIT and UNCERTAINTY') );
#462 = ( LENGTH_UNIT() NAMED_UNIT(*) SI_UNIT(.MILLI.,.METRE.) );
#463 = ( NAMED_UNIT(*) PLANE_ANGLE_UNIT() SI_UNIT($,.RADIAN.) );
#464 = ( NAMED_UNIT(*) SI_UNIT($,.STERADIAN.) SOLID_ANGLE_UNIT() );
#465 = UNCERTAINTY_MEASURE_WITH_UNIT(LENGTH_MEASURE(1.E-07),#462,
  'distance_accuracy_value','confusion accuracy');
#466 = PRODUCT_RELATED_PRODUCT_CATEGORY('part',$,(#7));
#467 = MECHANICAL_DESIGN_GEOMETRIC_PRESENTATION_REPRESENTATION('',(#468)
  ,#461);
#468 = STYLED_ITEM('color',(#469),#15);
#469 = PRESENTATION_STYLE_ASSIGNMENT((#470,#476));
#470 = SURFACE_STYLE_USAGE(.BOTH.,#471);
#471 = SURFACE_SIDE_STYLE('',(#472));
#472 = SURFACE_STYLE_FILL_AREA(#473);
#473 = FILL_AREA_STYLE('',(#474));
#474 = FILL_AREA_STYLE_COLOUR('',#475);
#475 = COLOUR_RGB('',0.494117641438,0.423529408994,0.796078452645);
#476 = CURVE_STYLE('',#477,POSITIVE_LENGTH_MEASURE(0.1),#475);
#477 = DRAUGHTING_PRE_DEFINED_CURVE_FONT('continuous');
ENDSEC;
END-ISO-10303-21;
